<svg xmlns="http://www.w3.org/2000/svg" width="18" height="14" viewBox="0 0 18 14">
  <g id="Group_9384" data-name="Group 9384" transform="translate(5697 4490)">
    <path id="Path_2525" data-name="Path 2525" d="M17.364,3H2.636A1.6,1.6,0,0,0,1,4.556v9.333a1.6,1.6,0,0,0,1.636,1.556H6.727V17h6.545V15.444h4.091a1.6,1.6,0,0,0,1.628-1.556L19,4.556A1.6,1.6,0,0,0,17.364,3Zm0,10.889H2.636V4.556H17.364Zm-1.636-7h-9V8.444h9Zm0,3.111h-9v1.556h9ZM5.909,6.889H4.273V8.444H5.909Zm0,3.111H4.273v1.556H5.909Z" transform="translate(-5698 -4493)" fill="#353f52"/>
  </g>
</svg>
