<svg xmlns="http://www.w3.org/2000/svg" width="14.617" height="14.828" viewBox="0 0 14.617 14.828">
  <g id="Group_9392" data-name="Group 9392" transform="translate(5695.083 4757.048)">
    <path id="Path_2514" data-name="Path 2514" d="M12.433,6.115,9.348,4.331a.836.836,0,0,0-.841,0L5.421,6.115A.846.846,0,0,0,5,6.844v3.562a.846.846,0,0,0,.421.729L8.506,12.92a.836.836,0,0,0,.841,0l3.085-1.784a.846.846,0,0,0,.421-.729V6.844A.846.846,0,0,0,12.433,6.115ZM6.122,10.244V7.652l2.244,1.3V11.54Zm2.8-2.261-2.244-1.3,2.244-1.3,2.244,1.3Zm.561,3.557V8.954l2.244-1.3v2.592Z" transform="translate(-5696.326 -4755.253)" fill="#353f52"/>
    <path id="Path_2518" data-name="Path 2518" d="M12.433,6.115,9.348,4.331a.836.836,0,0,0-.841,0L5.421,6.115A.846.846,0,0,0,5,6.844v3.562a.846.846,0,0,0,.421.729L8.506,12.92a.836.836,0,0,0,.841,0l3.085-1.784a.846.846,0,0,0,.421-.729V6.844A.846.846,0,0,0,12.433,6.115ZM6.122,10.244V7.652l2.244,1.3V11.54Zm2.8-2.261-2.244-1.3,2.244-1.3,2.244,1.3Zm.561,3.557V8.954l2.244-1.3v2.592Z" transform="translate(-5693.32 -4761.265)" fill="#353f52"/>
    <path id="Path_2519" data-name="Path 2519" d="M12.433,6.115,9.348,4.331a.836.836,0,0,0-.841,0L5.421,6.115A.846.846,0,0,0,5,6.844v3.562a.846.846,0,0,0,.421.729L8.506,12.92a.836.836,0,0,0,.841,0l3.085-1.784a.846.846,0,0,0,.421-.729V6.844A.846.846,0,0,0,12.433,6.115ZM6.122,10.244V7.652l2.244,1.3V11.54Zm2.8-2.261-2.244-1.3,2.244-1.3,2.244,1.3Zm.561,3.557V8.954l2.244-1.3v2.592Z" transform="translate(-5700.083 -4761.265)" fill="#353f52"/>
  </g>
</svg>
