<svg xmlns="http://www.w3.org/2000/svg" width="25" height="25" viewBox="0 0 25 25">
  <g data-name="Group 8066" transform="translate(-984.5 -603.5)">
    <path id="Path_2191" data-name="Path 2191" d="M9,12.75A3.75,3.75,0,1,0,12.75,9,3.745,3.745,0,0,0,9,12.75Z" transform="translate(984.25 603.25)" fill="#677185"/>
    <path id="Path_2192" data-name="Path 2192" d="M9.5,12V9.5H5.863A9.978,9.978,0,0,1,24.175,12H26.75A12.495,12.495,0,0,0,4.5,7.013V4.5H2V12Z" transform="translate(982.5 601.5)" fill="#677185"/>
    <path id="Path_2193" data-name="Path 2193" d="M19.45,14v2.5h3.638A9.978,9.978,0,0,1,4.775,14H2.2a12.495,12.495,0,0,0,22.25,4.987V21.5h2.5V14Z" transform="translate(982.55 604.5)" fill="#677185"/>
  </g>
</svg>
