<svg xmlns="http://www.w3.org/2000/svg" width="15" height="15" viewBox="0 0 15 15">
  <g id="Group_9398" data-name="Group 9398" transform="translate(5695 4622)">
    <g id="Group_9390" data-name="Group 9390">
      <g id="Group_9389" data-name="Group 9389">
        <path id="Path_2517" data-name="Path 2517" d="M18,4.368V5.947H15.632V8.316H14.053V5.947H11.684V4.368h2.368V2h1.579V4.368ZM15.632,15.421H4.579V4.368H9.316V2.789H4.579A1.584,1.584,0,0,0,3,4.368V15.421A1.584,1.584,0,0,0,4.579,17H15.632a1.584,1.584,0,0,0,1.579-1.579V10.684H15.632Zm-3.158-4.737v3.158h1.579V10.684ZM9.316,13.842h1.579V7.526H9.316Zm-1.579,0V9.105H6.158v4.737Z" transform="translate(-5698 -4624)" fill="#353f52"/>
      </g>
    </g>
  </g>
</svg>
