<svg xmlns="http://www.w3.org/2000/svg" width="22.424" height="24.896" viewBox="0 0 22.424 24.896">
  <path id="Path_2175" data-name="Path 2175" d="M58.13,144.727,53.761,145.9l-3.837-2.218,3.837-2.218,4.369,1.169a.891.891,0,0,0,.238.033.922.922,0,0,0,.239-1.813l-2.583-.693,2.5-1.445a.922.922,0,0,0-.925-1.595l-2.5,1.444.691-2.579c.006-.023.013-.045.017-.066a.922.922,0,0,0-.7-1.1.919.919,0,0,0-1.1.687l-1.169,4.363L49,142.085v-4.437l3.2-3.2a.922.922,0,0,0-1.3-1.3L49,135.04v-2.886a.922.922,0,0,0-.922-.92h0a.923.923,0,0,0-.922.922v2.884l-1.892-1.895a.912.912,0,0,0-.65-.269h0a.923.923,0,0,0-.649,1.578l3.194,3.194v4.437l-3.843-2.22-1.168-4.355a.575.575,0,0,0-.018-.071.922.922,0,0,0-1.762.544l.691,2.579-2.5-1.445a.922.922,0,0,0-.919,1.6l2.5,1.446-2.582.691a.921.921,0,0,0,.236,1.813h0a.948.948,0,0,0,.236-.031l4.37-1.174,3.836,2.218L42.4,145.9l-4.37-1.174a.924.924,0,0,0-.476,1.786l2.583.691-2.494,1.441-.031.017a.922.922,0,0,0,.949,1.582l2.5-1.445-.691,2.583a.923.923,0,0,0,.65,1.13.9.9,0,0,0,.239.033.923.923,0,0,0,.891-.684l1.168-4.362,3.843-2.22v4.441l-3.191,3.191-.013.013a.922.922,0,0,0,1.313,1.3l1.89-1.895v2.886a.923.923,0,0,0,.922.92h0a.922.922,0,0,0,.92-.922v-2.886l1.9,1.9a.923.923,0,0,0,1.569-.666.913.913,0,0,0-.276-.648L49,149.715v-4.437l3.843,2.22,1.169,4.363a.923.923,0,0,0,.891.684.971.971,0,0,0,.238-.033.922.922,0,0,0,.652-1.13L55.1,148.8l2.5,1.441.03.017a.922.922,0,0,0,.9-1.612l-2.5-1.444,2.582-.691a.923.923,0,0,0-.471-1.784Zm-14.012,8.357Z" transform="translate(-36.868 -131.234)" fill="#677185"/>
</svg>
