<svg xmlns="http://www.w3.org/2000/svg" width="25" height="25" viewBox="0 0 25 25">
  <g data-name="Group 8064" transform="translate(-2.5 -2.5)">
    <path id="Path_2183" data-name="Path 2183" d="M22.313,9,15.438,5.025a1.863,1.863,0,0,0-1.875,0L6.688,9a1.885,1.885,0,0,0-.938,1.625v7.938a1.885,1.885,0,0,0,.938,1.625l6.875,3.975a1.863,1.863,0,0,0,1.875,0l6.875-3.975a1.885,1.885,0,0,0,.938-1.625V10.625A1.885,1.885,0,0,0,22.313,9ZM8.25,18.2V12.425l5,2.9v5.763Zm6.25-5.038-5-2.9,5-2.887,5,2.887-5,2.9Zm1.25,7.925V15.325l5-2.9V18.2ZM8.25,2H3.875A1.872,1.872,0,0,0,2,3.875V8.25H4.5V4.5H8.25Zm12.5,0h4.375A1.872,1.872,0,0,1,27,3.875V8.25H24.5V4.5H20.75ZM8.25,27H3.875A1.872,1.872,0,0,1,2,25.125V20.75H4.5V24.5H8.25Zm12.5,0h4.375A1.872,1.872,0,0,0,27,25.125V20.75H24.5V24.5H20.75Z" transform="translate(0.5 0.5)" fill="#677185"/>
  </g>
</svg>
