<svg xmlns="http://www.w3.org/2000/svg" width="16" height="16" viewBox="0 0 16 16">
  <g id="Group_9397" data-name="Group 9397" transform="translate(5696 4656)">
    <g id="Group_9391" data-name="Group 9391">
      <path id="Path_2521" data-name="Path 2521" d="M12,11.76l2.32,1.36-.64,1.04L10.8,12.4v-4H12Zm6-.16A6.388,6.388,0,0,1,7.384,16.4H3.6A1.556,1.556,0,0,1,2,14.8V7.6A1.61,1.61,0,0,1,3.6,6V5.6a3.591,3.591,0,0,1,7.168-.336A5.739,5.739,0,0,1,11.6,5.2,6.408,6.408,0,0,1,18,11.6ZM5.2,6h4V5.408a2,2,0,0,0-4,.192Zm11.2,5.6a4.8,4.8,0,1,0-4.8,4.8A4.8,4.8,0,0,0,16.4,11.6Z" transform="translate(-5698 -4658)" fill="#353f52"/>
    </g>
  </g>
</svg>
