<svg xmlns="http://www.w3.org/2000/svg" width="25" height="25" viewBox="0 0 25 25">
  <g id="Group_8558" data-name="Group 8558" transform="translate(-160.5 -311.5)">
    <path id="Path_2330" data-name="Path 2330" d="M14.5,2A12.5,12.5,0,1,0,27,14.5,12.5,12.5,0,0,0,14.5,2Zm1.763,20.112V24.5H12.925V22.087c-2.137-.45-3.95-1.825-4.087-4.25h2.45c.125,1.313,1.025,2.338,3.313,2.338,2.45,0,3-1.225,3-1.988,0-1.037-.55-2.012-3.337-2.675-3.1-.75-5.225-2.025-5.225-4.588,0-2.15,1.738-3.55,3.887-4.012V4.5h3.338V6.938a4.419,4.419,0,0,1,3.563,4.238h-2.45c-.062-1.387-.8-2.337-2.775-2.337-1.875,0-3,.85-3,2.05,0,1.05.813,1.738,3.337,2.387s5.225,1.738,5.225,4.887C20.15,20.45,18.438,21.7,16.263,22.112Z" transform="translate(158.5 309.5)" fill="#677185"/>
  </g>
</svg>
