<svg xmlns="http://www.w3.org/2000/svg" width="15" height="16.668" viewBox="0 0 15 16.668">
  <g id="Group_9396" data-name="Group 9396" transform="translate(5695.5 4690.334)">
    <path id="Path_2542" data-name="Path 2542" d="M15.5,11.166h-.567l-1.667,1.667h1.592L16.333,14.5H4.667L6.15,12.833H7.858L6.192,11.166H5.5L3,13.666V17a1.664,1.664,0,0,0,1.658,1.667H16.333A1.666,1.666,0,0,0,18,17V13.666Zm-.833-4.208-4.125,4.125-2.95-2.95,4.125-4.125ZM11.133,2.241,5.825,7.55a.83.83,0,0,0,0,1.175L9.95,12.85a.83.83,0,0,0,1.175,0l5.3-5.3a.83.83,0,0,0,0-1.175L12.3,2.25A.813.813,0,0,0,11.133,2.241Z" transform="translate(-5698.5 -4692.333)" fill="#353f52"/>
  </g>
</svg>
