<svg xmlns="http://www.w3.org/2000/svg" width="20" height="20" viewBox="0 0 20 20">
  <g id="Group_9393" data-name="Group 9393" transform="translate(5923 4527)">
    <path id="Path_2523" data-name="Path 2523" d="M15.833,3.2,14.667,2,13.5,3.2,12.333,2,11.167,3.2,10,2,8.833,3.2,7.667,2,6.5,3.2,5.333,2V13.2H3v2.4A2.364,2.364,0,0,0,5.333,18h9.333A2.364,2.364,0,0,0,17,15.6V2Zm-.389,12.4a.778.778,0,1,1-1.556,0V13.2h-7V4.4h8.556Z" transform="translate(-5923 -4527)" fill="#353f52"/>
    <rect id="Rectangle_4380" data-name="Rectangle 4380" width="6" height="2" transform="translate(-5915 -4521.111)" fill="#353f52"/>
    <rect id="Rectangle_4382" data-name="Rectangle 4382" width="6" height="2" transform="translate(-5915 -4518)" fill="#353f52"/>
    <rect id="Rectangle_4384" data-name="Rectangle 4384" width="20" height="20" transform="translate(-5923 -4527)" fill="none"/>
  </g>
</svg>
