<svg width="104" height="72" viewBox="0 0 104 72" fill="none" xmlns="http://www.w3.org/2000/svg">
<g clip-path="url(#clip0_22_1150)">
<path d="M29.0882 16.3752H24.015L25.1107 11.3921H40.9606L39.8649 16.3752H34.8218L31.8199 30.3039H26.0263L29.0882 16.3752Z" fill="white"/>
<path d="M53.7936 23.0694H47.0244L45.4334 30.3039H39.6998L43.8274 11.3921H49.561L48.0601 18.0713H54.8293L56.3302 11.3921H62.0638L57.9362 30.3039H52.2177L53.7936 23.0694Z" fill="white"/>
<path d="M65.2158 11.3921H79.5648L78.5141 16.1651H69.8837L69.3434 18.3564H77.7637L76.8481 23.1294H68.3528L67.8425 25.5309H76.4578L75.3471 30.3039H61.0432L65.2158 11.3921Z" fill="white"/>
<path d="M13.1182 46.8144L9.90615 61.5386H1.9812L7.80484 35.4072H15.9549L21.9587 49.2759L24.9606 35.4072H32.8705L27.1369 61.5386H19.5422L13.1182 46.8144Z" fill="white"/>
<path d="M37.1332 35.4072H45.0432L39.3246 61.5386H31.3696L37.1332 35.4072Z" fill="white"/>
<path d="M54.6342 46.8144L51.4222 61.5386H43.5122L49.2758 35.4072H57.4259L63.4297 49.2759L66.4315 35.4072H74.3415L68.6679 61.5386H61.0732L54.6342 46.8144Z" fill="white"/>
<path d="M78.6492 35.4072H98.4766L96.9757 41.9813H85.1183L84.4578 44.9832H96.0901L94.5892 51.5723H83.0019L82.2665 54.9044H94.1689L92.668 61.4785H72.9006L78.6492 35.4072Z" fill="white"/>
<path d="M100.608 2.7316C98.314 0.849286 95.4076 -0.123069 92.4428 -0.000113008C89.5563 -0.111824 86.728 0.832709 84.4878 2.65655C83.4625 3.54562 82.6487 4.65254 82.106 5.89641C81.5633 7.14028 81.3053 8.48969 81.3509 9.84604C81.3073 11.1536 81.5387 12.4558 82.0299 13.6683C82.5211 14.8809 83.2613 15.9769 84.2027 16.8854C86.1844 18.7214 88.8124 19.6981 91.5122 19.6021H91.8575L84.6079 29.043L83.6323 30.3188H91.8575L92.0976 30.0036L100.083 19.392C101.155 17.9836 102.09 16.4758 102.874 14.8892C103.565 13.3736 103.904 11.7213 103.865 10.0562C103.905 8.66928 103.634 7.29101 103.07 6.02322C102.506 4.75542 101.665 3.63051 100.608 2.7316V2.7316ZM97.0507 9.77099C97.1198 11.0308 96.7306 12.273 95.955 13.2682C95.5185 13.7055 94.9908 14.0413 94.4097 14.2514C93.8286 14.4615 93.2082 14.5409 92.5929 14.4839C91.9655 14.5362 91.3341 14.4564 90.7395 14.2496C90.1449 14.0428 89.6003 13.7135 89.1408 13.2832C88.3312 12.3394 87.922 11.117 88 9.87606C87.9701 9.28124 88.0626 8.68661 88.2717 8.12896C88.4808 7.57131 88.8021 7.0625 89.2158 6.63403C89.6809 6.20665 90.2282 5.87845 90.8243 5.66943C91.4204 5.46042 92.0528 5.37496 92.683 5.41827C93.2752 5.37363 93.8702 5.45191 94.4307 5.64822C94.9912 5.84452 95.5051 6.1546 95.94 6.55899C96.7156 7.44347 97.1142 8.59634 97.0507 9.77099V9.77099Z" fill="white"/>
<path d="M3.30211 66.5815C3.76063 66.5617 4.21477 66.678 4.60737 66.9157C4.99997 67.1534 5.31349 67.5019 5.50849 67.9174L4.26271 68.4277C4.15158 68.2212 3.98375 68.0507 3.779 67.9364C3.57425 67.822 3.3411 67.7686 3.10699 67.7823C2.88359 67.788 2.66357 67.8383 2.45982 67.9301C2.25607 68.0219 2.07266 68.1534 1.92033 68.3169C1.76799 68.4804 1.64979 68.6726 1.57264 68.8824C1.49548 69.0921 1.46092 69.3151 1.47097 69.5384C1.4686 69.7117 1.50199 69.8837 1.56908 70.0435C1.63616 70.2034 1.73549 70.3477 1.86085 70.4674C1.98621 70.5871 2.13492 70.6797 2.29768 70.7394C2.46044 70.799 2.63376 70.8245 2.8068 70.8142C3.13328 70.8098 3.44945 70.6992 3.70737 70.499L3.79742 70.0637H2.59667L2.85183 68.923H5.3734L4.80305 70.9943C4.53907 71.3184 4.20423 71.5776 3.82432 71.7519C3.4444 71.9263 3.02954 72.0111 2.61168 71.9999C2.28015 72.0287 1.94623 71.9892 1.63059 71.8838C1.31496 71.7783 1.02432 71.6092 0.776687 71.3869C0.529052 71.1646 0.329687 70.8938 0.190934 70.5913C0.0521812 70.2889 -0.0230062 69.9611 -0.0299717 69.6284C-0.0389883 69.2011 0.0433737 68.7767 0.211602 68.3837C0.379831 67.9907 0.630046 67.6382 0.945507 67.3498C1.26097 67.0613 1.6344 66.8436 2.04081 66.7111C2.44723 66.5786 2.87725 66.5344 3.30211 66.5815V66.5815Z" fill="white"/>
<path d="M6.58907 66.6716H7.93992L7.03935 70.7392H9.14067L8.88551 71.9099H5.43335L6.58907 66.6716Z" fill="white"/>
<path d="M12.7279 66.5815C13.0606 66.5505 13.3962 66.5884 13.7136 66.6929C14.031 66.7973 14.3235 66.9661 14.5728 67.1886C14.8221 67.4111 15.0228 67.6827 15.1625 67.9862C15.3022 68.2898 15.3778 68.6189 15.3846 68.953C15.3848 69.3562 15.3038 69.7554 15.1465 70.1266C14.9891 70.4978 14.7585 70.8335 14.4685 71.1137C14.1786 71.3939 13.8351 71.6127 13.4587 71.7573C13.0823 71.9018 12.6806 71.969 12.2776 71.9549C11.9449 71.9859 11.6094 71.948 11.292 71.8435C10.9745 71.7391 10.6821 71.5703 10.4328 71.3478C10.1835 71.1253 9.98273 70.8538 9.84305 70.5502C9.70338 70.2466 9.62778 69.9175 9.62097 69.5834C9.62073 69.1802 9.70171 68.7811 9.8591 68.4098C10.0165 68.0386 10.247 67.7029 10.537 67.4227C10.827 67.1426 11.1704 66.9237 11.5469 66.7792C11.9233 66.6346 12.325 66.5674 12.7279 66.5815ZM12.6379 67.7823C12.4164 67.7899 12.1987 67.8417 11.9974 67.9345C11.7962 68.0274 11.6155 68.1594 11.466 68.323C11.3164 68.4865 11.201 68.6782 11.1264 68.8869C11.0519 69.0956 11.0197 69.3171 11.0319 69.5384C11.0272 69.7123 11.059 69.8854 11.1253 70.0463C11.1916 70.2072 11.2909 70.3524 11.4168 70.4726C11.5426 70.5928 11.6923 70.6853 11.856 70.7441C12.0198 70.803 12.1941 70.8268 12.3677 70.8142C12.5892 70.8065 12.8069 70.7548 13.0081 70.6619C13.2093 70.5691 13.39 70.437 13.5396 70.2735C13.6891 70.11 13.8046 69.9182 13.8791 69.7095C13.9537 69.5008 13.9858 69.2794 13.9737 69.0581C13.9783 68.8841 13.9465 68.7111 13.8802 68.5502C13.8139 68.3893 13.7146 68.2441 13.5888 68.1239C13.4629 68.0037 13.3133 67.9112 13.1495 67.8523C12.9857 67.7935 12.8114 67.7696 12.6379 67.7823V67.7823Z" fill="white"/>
<path d="M16.5554 66.6717H19.2871C19.4717 66.6437 19.6601 66.6557 19.8397 66.7068C20.0192 66.7579 20.1858 66.8469 20.328 66.9678C20.4703 67.0888 20.5849 67.2388 20.6643 67.4077C20.7436 67.5767 20.7858 67.7608 20.788 67.9475C20.7873 68.278 20.6667 68.597 20.4487 68.8454C20.2306 69.0938 19.9299 69.2547 19.6023 69.2983C19.8265 69.3649 20.022 69.5044 20.158 69.6947C20.2939 69.8851 20.3624 70.1153 20.3528 70.349C20.3528 71.0694 19.8574 71.8499 18.5066 71.8499H15.3997L16.5554 66.6717ZM18.5216 69.8086H17.2158L16.9907 70.7842H18.3115C18.39 70.7947 18.4698 70.7888 18.5458 70.7667C18.6219 70.7447 18.6925 70.7071 18.7532 70.6562C18.8139 70.6054 18.8634 70.5425 18.8984 70.4715C18.9335 70.4005 18.9534 70.323 18.9569 70.2439C18.959 70.1862 18.9492 70.1286 18.928 70.0749C18.9069 70.0211 18.8749 69.9723 18.8341 69.9314C18.7932 69.8906 18.7444 69.8586 18.6906 69.8375C18.6369 69.8163 18.5793 69.8065 18.5216 69.8086V69.8086ZM18.8968 67.7974H17.6661L17.4559 68.6979H18.7468C18.8186 68.7064 18.8915 68.6996 18.9605 68.6778C19.0295 68.656 19.0931 68.6197 19.1471 68.5715C19.201 68.5232 19.2441 68.464 19.2734 68.3978C19.3027 68.3316 19.3176 68.26 19.3171 68.1876C19.3173 68.1337 19.3063 68.0804 19.2848 68.031C19.2633 67.9816 19.2319 67.9371 19.1924 67.9005C19.1529 67.8638 19.1063 67.8357 19.0554 67.818C19.0046 67.8002 18.9506 67.7932 18.8968 67.7974V67.7974Z" fill="white"/>
<path d="M24.3152 71.1144H22.1539L21.7186 71.9099H20.2177L23.3546 66.6716H25.0507L25.8162 71.9099H24.4203L24.3152 71.1144ZM22.8143 69.9887H24.3152L24.0601 67.8123L22.8143 69.9887Z" fill="white"/>
<path d="M27.3171 66.6716H28.6679L27.7674 70.7392H29.8687L29.6135 71.9099H26.1614L27.3171 66.6716Z" fill="white"/>
<path d="M34.4165 67.8574H32.9155L33.1857 66.6716H37.4634L37.2082 67.8574H35.7073L34.8217 71.9099H33.4709L34.4165 67.8574Z" fill="white"/>
<path d="M40.2251 66.5816C40.5571 66.5505 40.8919 66.5884 41.2085 66.693C41.5251 66.7976 41.8167 66.9666 42.0648 67.1893C42.3129 67.4121 42.5123 67.6838 42.6503 67.9873C42.7883 68.2908 42.862 68.6197 42.8668 68.9531C42.8669 69.355 42.7864 69.7528 42.63 70.123C42.4735 70.4932 42.2443 70.8282 41.9559 71.1082C41.6676 71.3882 41.3259 71.6074 40.9513 71.7528C40.5766 71.8983 40.1766 71.967 39.7748 71.9549C39.4421 71.9859 39.1066 71.948 38.7891 71.8436C38.4717 71.7391 38.1792 71.5704 37.93 71.3479C37.6807 71.1253 37.4799 70.8538 37.3402 70.5502C37.2006 70.2467 37.125 69.9176 37.1182 69.5835C37.1179 69.1802 37.1989 68.7811 37.3563 68.4099C37.5137 68.0387 37.7442 67.703 38.0342 67.4228C38.3242 67.1426 38.6676 66.9237 39.044 66.7792C39.4205 66.6347 39.8221 66.5675 40.2251 66.5816ZM40.1351 67.7823C39.9136 67.79 39.6958 67.8417 39.4946 67.9346C39.2934 68.0274 39.1127 68.1595 38.9632 68.323C38.8136 68.4866 38.6982 68.6783 38.6236 68.887C38.5491 69.0957 38.5169 69.3172 38.5291 69.5384C38.5244 69.7124 38.5562 69.8854 38.6225 70.0463C38.6888 70.2072 38.7881 70.3525 38.914 70.4727C39.0398 70.5928 39.1895 70.6853 39.3532 70.7442C39.517 70.803 39.6913 70.8269 39.8649 70.8142C40.0864 70.8066 40.3041 70.7548 40.5053 70.662C40.7065 70.5691 40.8872 70.4371 41.0368 70.2735C41.1863 70.11 41.3018 69.9183 41.3763 69.7096C41.4508 69.5009 41.483 69.2794 41.4709 69.0581C41.4755 68.8842 41.4437 68.7111 41.3774 68.5502C41.3111 68.3893 41.2118 68.2441 41.086 68.1239C40.9601 68.0037 40.8105 67.9112 40.6467 67.8524C40.4829 67.7936 40.3086 67.7697 40.1351 67.7823V67.7823Z" fill="white"/>
<path d="M43.332 70.1989C43.3432 70.0013 43.3733 69.8053 43.4221 69.6135L44.0525 66.7317H45.4333L44.7729 69.7336C44.76 69.8583 44.76 69.9841 44.7729 70.1088C44.7741 70.2293 44.8008 70.3482 44.8511 70.4577C44.9015 70.5672 44.9744 70.6648 45.0651 70.7441C45.1557 70.8235 45.2622 70.8828 45.3774 70.9181C45.4926 70.9535 45.6139 70.9641 45.7335 70.9493C46.0267 70.9505 46.3096 70.8417 46.5263 70.6444C46.7431 70.4471 46.878 70.1756 46.9043 69.8837L47.5797 66.7917H48.9605L48.2701 69.8987C48.2128 70.5401 47.9049 71.1331 47.4131 71.549C46.9214 71.9648 46.2855 72.17 45.6435 72.1201C44.0975 72 43.332 71.2345 43.332 70.1989Z" fill="white"/>
<path d="M51.182 70.1989H50.4315L50.0413 71.97H48.6904L49.8311 66.6717H52.2326C52.4455 66.6438 52.6618 66.6618 52.8671 66.7247C53.0724 66.7875 53.2618 66.8936 53.4225 67.0359C53.5833 67.1781 53.7116 67.3532 53.799 67.5493C53.8863 67.7454 53.9305 67.958 53.9287 68.1726C53.9341 68.5934 53.8001 69.0042 53.5476 69.3408C53.2951 69.6775 52.9383 69.9211 52.5328 70.0338L53.1632 71.8799H51.6623L51.182 70.1989ZM52.5328 68.3978C52.531 68.3241 52.5142 68.2516 52.4834 68.1847C52.4526 68.1178 52.4084 68.0579 52.3536 68.0087C52.2987 67.9595 52.2344 67.9221 52.1646 67.8986C52.0948 67.8752 52.0209 67.8663 51.9475 67.8724H50.9418L50.6867 69.0432H51.7373C52.2176 68.9831 52.5328 68.6979 52.5328 68.3377V68.3978Z" fill="white"/>
<path d="M55.0395 66.6716H56.3904L55.2346 71.9099H53.8838L55.0395 66.6716Z" fill="white"/>
<path d="M56.8556 70.0637C57.0777 70.318 57.3525 70.5208 57.661 70.6582C57.9694 70.7956 58.3041 70.8642 58.6417 70.8592C59.0919 70.8592 59.2571 70.6191 59.2571 70.4239C59.2571 70.2288 58.9268 70.0337 58.4766 69.8686C57.7411 69.6134 56.7505 69.2682 56.7505 68.2476C56.8144 67.7547 57.0682 67.3063 57.458 66.9979C57.8477 66.6895 58.3424 66.5454 58.8368 66.5965C59.2408 66.5842 59.6432 66.6537 60.0198 66.8007C60.3963 66.9477 60.7393 67.1693 61.0282 67.4521L60.2327 68.3826C59.8343 67.9821 59.2965 67.7509 58.7317 67.7372C58.3715 67.7372 58.1614 67.9174 58.1614 68.1275C58.1614 68.3376 58.5066 68.5027 58.9419 68.6678C59.6923 68.908 60.6829 69.2832 60.6829 70.2438C60.6664 70.5008 60.5977 70.7516 60.4808 70.981C60.3639 71.2105 60.2014 71.4136 60.0033 71.578C59.8052 71.7424 59.5755 71.8647 59.3285 71.9372C59.0815 72.0098 58.8222 72.0311 58.5666 71.9999C58.1023 72.0232 57.6384 71.9469 57.2061 71.776C56.7737 71.6052 56.383 71.3437 56.0601 71.0093L56.8556 70.0637Z" fill="white"/>
<path d="M66.3414 68.4277L64.2401 71.9099H63.6397L63.0843 68.4277L62.3189 71.9099H60.968L62.1237 66.6716H63.9549L64.4052 69.6735L66.1463 66.6716H68.0675L66.9117 71.9099H65.5609L66.3414 68.4277Z" fill="white"/>
<path d="M71.865 67.8574H70.364L70.6192 66.6716H74.9119L74.6417 67.8574H73.1407L72.3453 71.9099H70.9944L71.865 67.8574Z" fill="white"/>
<path d="M75.5871 66.6716H79.4295L79.1744 67.8123H76.6828L76.5027 68.6829H78.9342L78.6791 69.8386H76.2475L76.0374 70.7692H78.529L78.2738 71.9099H74.4314L75.5871 66.6716Z" fill="white"/>
<path d="M82.6416 71.1144H80.4803L80.03 71.9099H78.5291L81.651 66.6716H83.3471L84.1726 71.9099H82.7767L82.6416 71.1144ZM81.1407 69.9887H82.6416L82.3865 67.8123L81.1407 69.9887Z" fill="white"/>
<path d="M89.8913 68.4277L87.79 71.9099H87.1896L86.6493 68.4277L85.8538 71.9099H84.5029L85.6587 66.6716H87.5048L87.9551 69.6735L89.6962 66.6716H91.6324L90.4767 71.9099H89.1258L89.8913 68.4277Z" fill="white"/>
</g>
<defs>
<clipPath id="clip0_22_1150">
<rect width="103.805" height="72" fill="white"/>
</clipPath>
</defs>
</svg>
