<svg id="Layer_1" data-name="Layer 1" xmlns="http://www.w3.org/2000/svg" viewBox="0 0 24 24"><defs><style>.cls-1{fill:#5fa9dd;}.cls-2{fill:#f2f2f2;}</style></defs><title>fgdsgsd</title><circle class="cls-1" cx="12" cy="12" r="11.97"/><path class="cls-2" d="M19.33,8.63a5.61,5.61,0,0,1-1.64.45A2.83,2.83,0,0,0,19,7.5a5.72,5.72,0,0,1-1.82.69,2.87,2.87,0,0,0-4.95,2,3.41,3.41,0,0,0,.07.65,8.17,8.17,0,0,1-5.9-3A3,3,0,0,0,6,9.25a2.85,2.85,0,0,0,1.27,2.38,2.86,2.86,0,0,1-1.3-.35v0a2.87,2.87,0,0,0,2.3,2.81A2.89,2.89,0,0,1,7,14.17a2.88,2.88,0,0,0,2.67,2,5.77,5.77,0,0,1-3.55,1.22,5.32,5.32,0,0,1-.69,0,8.13,8.13,0,0,0,12.53-6.86v-.37a5.56,5.56,0,0,0,1.42-1.48Z"/></svg>