<svg id="Group_8554" data-name="Group 8554" xmlns="http://www.w3.org/2000/svg" width="22.8" height="24" viewBox="0 0 22.8 24">
  <ellipse id="NoPath_-_Copy_10_" data-name="NoPath - Copy (10)" cx="11.4" cy="12" rx="11.4" ry="12" fill="#fff"/>
  <g id="g5" transform="translate(5.8 7.2)">
    <path id="path7" d="M11.8,1.512A1.635,1.635,0,0,0,10.737.3,30.811,30.811,0,0,0,6.023,0,32.028,32.028,0,0,0,1.31.284,1.671,1.671,0,0,0,.248,1.512,20.83,20.83,0,0,0,0,4.833,20.752,20.752,0,0,0,.248,8.154,1.635,1.635,0,0,0,1.31,9.37a30.877,30.877,0,0,0,4.714.3,32.028,32.028,0,0,0,4.714-.284A1.635,1.635,0,0,0,11.8,8.165a20.83,20.83,0,0,0,.248-3.321A19.778,19.778,0,0,0,11.8,1.512Z" transform="translate(0 0)" fill="red"/>
    <path id="polygon9" d="M32.926,16.792l-4.337-2.5v5Z" transform="translate(-24.416 -11.959)" fill="#fff"/>
  </g>
</svg>
